# xmcd
#
# Track frame offsets:
#	150
#	10908
#	21785
#	38829
#	50801
#	60820
#	73040
#	83479
#	96459
#	112732
#	123848
#	136573
#	148329
#	163720
#	177875
#
# Disc length: 2552 seconds
#
# Revision: 0
# Processed by: cddbd v1.5.2PL0 Copyright (c) Steve Scherf et al.
# Submitted via: EasyCDDAExtractor 16.0.9.1
#
DISCID=be09f60f
DTITLE=Blues Giants, The Essential Songbook - EDICION SIMPLE
DYEAR=2009
DGENRE=Blues
TTITLE0=Recession Blues 
TTITLE1=Key To The Highway 
TTITLE2=Little Red Rooster
TTITLE3=Crossroad Blues
TTITLE4=Dimples 
TTITLE5=The Sky Is Crying
TTITLE6=Let Your Conscience Be Your Guide 
TTITLE7=The Midnigth Special
TTITLE8=Blue and Disgusted
TTITLE9=Jacqueline
TTITLE10=Rocket 88
TTITLE11=I´m A Little Mixed Up
TTITLE12=Born Unnder As Bad Sing
TTITLE13=Blues Is My Middle Name
TTITLE14=Alexander Ragtime Band
EXTD=
EXTT0=
EXTT1=
EXTT2=
EXTT3=
EXTT4=
EXTT5=
EXTT6=
EXTT7=
EXTT8=
EXTT9=
EXTT10=
EXTT11=
EXTT12=
EXTT13=
EXTT14=
PLAYORDER=
